<svg viewBox="0 0 16 16" fill="none" xmlns="http://www.w3.org/2000/svg">
    <path
        d="M1.82667 8.49475H10.4955C10.7721 8.49475 10.9958 8.27075 10.9958 7.99475C10.9958 7.71875 10.7721 7.49475 10.4955 7.49475H1.85794L3.66785 5.686C3.86322 5.49075 3.86322 5.17425 3.66785 4.979C3.47247 4.78375 3.15577 4.78375 2.96039 4.979L0.00524902 8.01025L2.96039 11.0415C3.0582 11.1393 3.18604 11.188 3.31412 11.188C3.4422 11.188 3.57003 11.1393 3.66785 11.0415C3.86322 10.8463 3.86322 10.5298 3.66785 10.3345L1.82667 8.49475ZM15.0044 0H6.49889C5.94604 0 5.49825 0.44775 5.49825 1V5.5H6.5054V1.60975C6.5054 1.27575 6.77657 1.00475 7.11079 1.00475H14.3767C14.7111 1.00475 14.9821 1.27575 14.9821 1.60975L14.9978 14.3955C14.9978 14.7295 14.7269 15.0005 14.3924 15.0005H7.11105C6.77684 15.0005 6.50566 14.7295 6.50566 14.3955V10.4835L5.49852 10.4847V15C5.49852 15.5523 5.9463 16 6.49916 16H15.0044C15.5572 16 16.0052 15.5523 16.0052 15V1C16.005 0.44775 15.557 0 15.0044 0Z"
        fill="#F2F2F2" />
</svg>